<svg xmlns="http://www.w3.org/2000/svg" width="11" height="14" viewBox="0 0 11 14" fill="none">
  <path d="M6.14286 7C6.93851 7 7.70157 6.68393 8.26418 6.12132C8.82679 5.55871 9.14286 4.79565 9.14286 4C9.14286 3.20435 8.82679 2.44129 8.26418 1.87868C7.70157 1.31607 6.93851 1 6.14286 1H1V7M6.14286 7H1M6.14286 7H7C7.79565 7 8.55871 7.31607 9.12132 7.87868C9.68393 8.44129 10 9.20435 10 10C10 10.7956 9.68393 11.5587 9.12132 12.1213C8.55871 12.6839 7.79565 13 7 13H1V7" stroke="#444444" stroke-width="2" stroke-linecap="round" stroke-linejoin="round"/>
</svg>